<?xml version="1.0" encoding="utf-8"?>
<!-- Generator: Adobe Illustrator 26.1.0, SVG Export Plug-In . SVG Version: 6.00 Build 0)  -->
<svg version="1.1" id="Layer_1" xmlns="http://www.w3.org/2000/svg" xmlns:xlink="http://www.w3.org/1999/xlink" x="0px" y="0px"
	 viewBox="0 0 294 261" style="enable-background:new 0 0 294 261;" xml:space="preserve">
<style type="text/css">
	.st0{fill:#FFFFFF;}
	.st1{fill:none;stroke:#03B5E5;stroke-width:11;stroke-miterlimit:10;}
</style>
<g>
	<image style="overflow:visible;opacity:0.53;" width="294" height="261" xlink:href="51BEA2DD16FB9A29.png" >
	</image>
	<g>
		<path class="st0" d="M148.1,29.2c61.3,0,110.9,35.6,110.9,79.6c0,21.8-1.6,38.9-25.2,52.9l11.6,52.1l-67.8-31.6
			c-10.2,2.6-21.4,6.1-29.3,6.1c-61.3,0-110.9-35.6-110.9-79.6C37.1,64.8,86.8,29.2,148.1,29.2z"/>
		<path class="st1" d="M148.1,29.2c61.3,0,110.9,35.6,110.9,79.6c0,21.8-1.6,38.9-25.2,52.9l11.6,52.1l-67.8-31.6
			c-10.2,2.6-21.4,6.1-29.3,6.1c-61.3,0-110.9-35.6-110.9-79.6C37.1,64.8,86.8,29.2,148.1,29.2z"/>
	</g>
</g>
</svg>
